<?xml version="1.0" standalone="no"?>
<!DOCTYPE svg PUBLIC "-//W3C//DTD SVG 20010904//EN"
 "http://www.w3.org/TR/2001/REC-SVG-20010904/DTD/svg10.dtd">
<svg version="1.0" xmlns="http://www.w3.org/2000/svg"
 width="3543.000000pt" height="3543.000000pt" viewBox="0 0 3543.000000 3543.000000"
 preserveAspectRatio="xMidYMid meet">
<metadata>
Created by potrace 1.11, written by Peter Selinger 2001-2013
</metadata>
<g transform="translate(0.000000,3543.000000) scale(0.100000,-0.100000)"
fill="#000000" stroke="none">
<path d="M2390 17715 l0 -15325 15325 0 15325 0 0 15325 0 15325 -15325 0
-15325 0 0 -15325z m28550 0 l0 -13225 -13225 0 -13225 0 0 13225 0 13225
13225 0 13225 0 0 -13225z"/>
<path d="M11099 28745 c-1 0 -3 -1424 -4 -3165 -2 -2803 -5 -3309 -19 -3386
-2 -10 -7 -44 -11 -74 -33 -258 -130 -523 -250 -685 -162 -218 -400 -358 -680
-400 -22 -4 -51 -9 -65 -11 -46 -10 -344 -12 -415 -4 -382 45 -665 205 -841
475 -117 180 -175 360 -199 620 -4 39 -9 72 -11 74 -2 3 -1560 4 -1714 2 -34
-1 -35 -2 -34 -38 5 -115 15 -282 19 -308 7 -44 15 -104 21 -150 2 -22 7 -47
9 -55 2 -8 7 -31 10 -50 14 -81 59 -253 95 -361 221 -656 662 -1169 1276
-1482 101 -51 309 -139 388 -163 190 -58 296 -85 386 -100 19 -3 38 -8 41 -10
4 -2 24 -6 45 -9 22 -3 64 -10 94 -15 158 -27 399 -44 610 -44 142 0 380 10
430 18 14 3 57 7 95 10 39 4 133 18 210 31 190 34 186 33 310 66 61 16 117 31
125 33 53 13 292 106 384 150 139 66 377 204 406 236 3 3 21 17 40 30 19 13
37 27 40 30 3 3 34 29 70 59 420 352 721 880 855 1501 2 8 8 36 14 63 6 26 14
64 17 85 3 20 7 48 10 62 2 14 6 45 10 70 3 25 7 56 10 70 2 14 7 50 9 80 3
30 7 71 10 90 2 19 8 85 11 145 8 124 12 6504 4 6506 -3 1 -1776 5 -1811 4z"/>
<path d="M17172 18257 l-8592 -8593 550 -549 c303 -303 552 -551 553 -552 1
-1 3869 3865 8595 8590 l8592 8593 -550 549 c-303 303 -552 551 -553 552 -1 1
-3869 -3865 -8595 -8590z"/>
<path d="M21678 15770 c-1 -3 -2 -2065 -3 -4583 l-1 -4578 2090 4 c1150 3
2109 7 2131 10 22 2 69 8 105 12 36 3 97 11 135 16 39 5 88 12 110 15 22 2 47
7 55 9 8 2 31 7 50 10 536 85 1118 340 1490 653 89 75 256 241 309 307 128
162 211 293 290 458 100 208 180 469 207 680 2 15 6 39 9 55 32 178 22 613
-19 827 -2 11 -6 36 -10 55 -11 59 -14 73 -34 150 -51 185 -181 486 -255 585
-4 5 -34 48 -66 94 -106 151 -268 315 -421 428 -36 26 -66 51 -68 55 -2 5 -7
8 -12 8 -5 0 -35 17 -67 39 -74 49 -277 152 -368 186 -115 43 -270 92 -270 85
0 -1 -13 3 -28 9 -15 6 -42 13 -60 16 -18 3 -48 10 -67 15 -19 5 -87 16 -150
26 -63 9 -117 18 -120 21 -2 2 -5 20 -5 39 -1 32 1 35 39 45 304 78 610 229
836 412 357 290 599 723 665 1192 4 22 8 47 10 55 25 96 24 519 -1 680 -6 40
-22 135 -28 166 -29 147 -92 329 -171 489 -265 543 -769 934 -1445 1126 -25 7
-47 13 -50 14 -3 1 -23 5 -45 9 -22 4 -54 12 -71 17 -32 10 -36 11 -114 25
-25 4 -47 8 -50 9 -3 1 -30 5 -60 9 -30 5 -62 10 -70 11 -16 3 -114 15 -165
20 -16 2 -79 7 -140 11 -122 8 -4094 12 -4097 4z m3447 -1364 c105 -2 204 -7
220 -11 17 -3 68 -12 115 -21 188 -34 395 -122 532 -224 210 -158 346 -383
404 -670 18 -92 25 -354 12 -467 -47 -396 -277 -701 -653 -866 -101 -45 -246
-92 -340 -112 -84 -18 -238 -44 -300 -50 -38 -4 -90 -9 -115 -12 -25 -3 -378
-8 -786 -10 l-741 -4 0 1225 0 1226 216 2 c311 4 1213 0 1436 -6z m365 -3720
c231 -35 426 -82 529 -128 273 -120 400 -218 580 -444 30 -38 106 -183 135
-260 32 -83 43 -120 60 -206 3 -16 8 -39 11 -53 13 -63 16 -101 20 -260 2 -93
-1 -195 -6 -225 -5 -30 -11 -73 -14 -95 -11 -71 -36 -158 -71 -243 -35 -85
-41 -96 -103 -192 -32 -50 -151 -177 -211 -225 -131 -105 -405 -233 -580 -270
-8 -2 -53 -13 -100 -24 -73 -17 -125 -27 -250 -46 -226 -34 -403 -39 -1245
-40 l-770 0 -1 1363 -1 1362 986 -4 c542 -2 1006 -7 1031 -10z"/>
</g>
</svg>
